HIERARCHY
ROOT Hips
{
	OFFSET 0.000000 88.474243 0.000000
	CHANNELS 6 Xposition Yposition Zposition Zrotation Yrotation Xrotation 
	JOINT Hips_Spine
	{
		OFFSET 0.000000 0.000000 0.000000
		CHANNELS 3 Zrotation Yrotation Xrotation
		JOINT Spine
		{
			OFFSET 0.005100 8.711998 -0.691000
			CHANNELS 3 Zrotation Yrotation Xrotation
			JOINT Spine1
			{
				OFFSET -0.009200 8.660301 -1.275000
				CHANNELS 3 Zrotation Yrotation Xrotation
				JOINT Spine2
				{
					OFFSET 0.006300 9.852501 -1.857000
					CHANNELS 3 Zrotation Yrotation Xrotation
					JOINT Spine2_Neck
					{
						OFFSET 0.000000 0.000000 0.000000
						CHANNELS 3 Zrotation Yrotation Xrotation
						JOINT Neck
						{
							OFFSET 0.016300 11.420799 -0.263300
							CHANNELS 3 Zrotation Yrotation Xrotation
							End Site #name: Head
							{
								OFFSET -0.019200 9.262405 2.362500
							}
						}
					}
					JOINT Spine2_LeftShoulder
					{
						OFFSET 0.000000 0.000000 0.000000
						CHANNELS 3 Zrotation Yrotation Xrotation
						JOINT LeftShoulder
						{
							OFFSET 5.616900 6.732201 -0.345700
							CHANNELS 3 Zrotation Yrotation Xrotation
							JOINT LeftArm
							{
								OFFSET 10.664888 -0.183372 -2.440700
								CHANNELS 3 Zrotation Yrotation Xrotation
								JOINT LeftForeArm
								{
									OFFSET 27.459126 0.000000 0.000000
									CHANNELS 3 Zrotation Yrotation Xrotation
									End Site #name: LeftHand
									{
										OFFSET 21.306858 0.000000 0.000000
									}
								}
							}
						}
					}
					JOINT Spine2_RightShoulder
					{
						OFFSET 0.000000 0.000000 0.000000
						CHANNELS 3 Zrotation Yrotation Xrotation
						JOINT RightShoulder
						{
							OFFSET -5.580300 6.737503 -0.344400
							CHANNELS 3 Zrotation Yrotation Xrotation
							JOINT RightArm
							{
								OFFSET -10.679335 -0.188484 -2.383900
								CHANNELS 3 Zrotation Yrotation Xrotation
								JOINT RightForeArm
								{
									OFFSET -27.503529 0.000000 0.000000
									CHANNELS 3 Zrotation Yrotation Xrotation
									End Site #name: RightHand
									{
										OFFSET -21.306808 0.000000 0.000000
									}
								}
							}
						}
					}
				}
			}
		}
	}
	JOINT Hips_LeftUpLeg
	{
		OFFSET 0.000000 0.000000 0.000000
		CHANNELS 3 Zrotation Yrotation Xrotation
		JOINT LeftUpLeg
		{
			OFFSET 6.857700 -6.739601 0.312100
			CHANNELS 3 Zrotation Yrotation Xrotation
			JOINT LeftLeg
			{
				OFFSET -0.367590 -34.731552 -4.572400
				CHANNELS 3 Zrotation Yrotation Xrotation
				End Site #name: LeftFoot
				{
					OFFSET 0.367590 -34.656704 -6.067400
				}
			}
		}
	}
	JOINT Hips_RightUpLeg
	{
		OFFSET 0.000000 0.000000 0.000000
		CHANNELS 3 Zrotation Yrotation Xrotation
		JOINT RightUpLeg
		{
			OFFSET -6.876100 -6.733299 0.301000
			CHANNELS 3 Zrotation Yrotation Xrotation
			JOINT RightLeg
			{
				OFFSET 0.347353 -34.795158 -4.515900
				CHANNELS 3 Zrotation Yrotation Xrotation
				End Site #name: RightFoot
				{
					OFFSET -0.347353 -34.589367 -6.070300
				}
			}
		}
	}
}
MOTION
Frames: 13
Frame Time: 0.041667
0.729800 -0.886169 -2.241601 -10.357039 45.773376 -4.079736 0.000000 -0.000000 0.000000 5.724764 -5.748518 4.574474 2.316240 -1.413516 6.402767 0.000000 0.000000 0.000000 3.021319 -1.650478 6.964499 1.115382 -17.051760 -1.795580 1.116713 -0.684049 5.496726 -2.163004 -0.658316 -3.424947 -88.159709 -22.119340 -14.316334 0.057918 7.075840 2.727690 2.441492 -2.691091 6.383857 16.197328 17.293442 -0.034640 60.787628 2.743679 -3.504676 -178.191727 62.700122 -173.387074 0.000000 0.000000 -0.000000 1.452762 18.270984 -12.104675 -2.066361 -27.614018 -4.315509 0.000000 0.000000 -0.000000 -1.004326 -27.537191 -5.074863 -8.332556 -7.298021 13.579456 
0.730931 -0.897656 -2.311397 -10.250632 45.582245 -4.002262 0.000000 -0.000000 0.000000 5.733940 -5.815430 4.590371 2.250333 -1.394093 6.368196 0.000000 0.000000 0.000000 2.966621 -1.639019 6.937846 1.016227 -16.775908 -1.847547 1.083027 -0.672182 5.486650 -2.205284 -0.716692 -3.407229 -88.053702 -22.222204 -14.110930 0.042466 6.982338 2.762311 2.373340 -2.677170 6.371542 16.373885 17.280661 -0.040098 60.608914 2.980397 -3.478763 -178.043029 63.495220 -173.217659 0.000000 0.000000 -0.000000 1.446470 18.221903 -12.188851 -2.102647 -27.528099 -4.180044 0.000000 0.000000 -0.000000 -0.967780 -27.559593 -5.035984 -8.373680 -7.203798 13.539176 
0.733149 -0.907679 -2.379989 -10.145449 45.360077 -3.920593 0.000000 -0.000000 0.000000 5.715932 -5.907035 4.617154 2.179768 -1.372174 6.334737 0.000000 0.000000 0.000000 2.910213 -1.626299 6.909604 0.920427 -16.423929 -1.920515 1.046655 -0.659237 5.474379 -2.242965 -0.762058 -3.398881 -87.917678 -22.313788 -13.899853 0.022514 6.901747 2.797946 2.300728 -2.661201 6.362100 16.591694 17.223626 -0.053611 60.417097 3.260377 -3.492097 -177.896387 64.234514 -173.048039 0.000000 0.000000 -0.000000 1.437726 18.171314 -12.281627 -2.139643 -27.424204 -4.033956 0.000000 0.000000 -0.000000 -0.927100 -27.594168 -4.991664 -8.366023 -7.059424 13.481404 
0.736577 -0.916453 -2.447699 -10.049321 45.120433 -3.841273 0.000000 -0.000000 0.000000 5.669800 -6.009800 4.673404 2.104369 -1.349412 6.295104 0.000000 0.000000 0.000000 2.852664 -1.614169 6.878550 0.825359 -16.013410 -2.014101 1.008092 -0.646094 5.461684 -2.283347 -0.845531 -3.373887 -87.783983 -22.385888 -13.696661 -0.006476 6.838424 2.822069 2.225110 -2.643988 6.350963 16.862303 17.146863 -0.063976 60.207430 3.541821 -3.529348 -177.749970 64.865556 -172.871580 0.000000 0.000000 -0.000000 1.428964 18.118774 -12.380652 -2.185790 -27.291513 -3.869242 0.000000 0.000000 -0.000000 -0.881557 -27.640117 -4.961673 -8.355945 -6.889394 13.430424 
0.741502 -0.924209 -2.514556 -9.954205 44.858593 -3.750328 0.000000 -0.000000 0.000000 5.589921 -6.144300 4.756461 2.025468 -1.326227 6.249611 0.000000 0.000000 0.000000 2.790046 -1.600951 6.848402 0.732105 -15.539246 -2.125705 0.967430 -0.633829 5.437844 -2.327044 -0.952300 -3.340575 -87.625592 -22.437381 -13.494720 -0.046701 6.823708 2.834436 2.145362 -2.626098 6.336896 17.177377 17.062173 -0.065303 59.983797 3.868872 -3.591942 -177.629451 65.305005 -172.712841 0.000000 0.000000 -0.000000 1.419237 18.068704 -12.488553 -2.242260 -27.149597 -3.690735 0.000000 -0.000000 -0.000000 -0.836374 -27.715303 -4.941809 -8.360794 -6.724733 13.390149 
0.748348 -0.931293 -2.580400 -9.865080 44.578438 -3.655390 0.000000 -0.000000 0.000000 5.478727 -6.294502 4.865401 1.946091 -1.309317 6.204971 0.000000 0.000000 0.000000 2.725425 -1.586368 6.820197 0.629188 -14.987181 -2.251912 0.925394 -0.622820 5.409991 -2.374016 -1.083035 -3.301541 -87.451868 -22.462843 -13.331530 -0.109333 6.847954 2.807980 2.062241 -2.608909 6.318471 17.522379 16.965115 -0.064783 59.749415 4.208839 -3.701377 -177.541806 65.524475 -172.585906 0.000000 0.000000 -0.000000 1.408295 18.022227 -12.608874 -2.299131 -26.998988 -3.497266 0.000000 -0.000000 -0.000000 -0.789175 -27.794666 -4.938835 -8.370666 -6.581800 13.356540 
0.757498 -0.937662 -2.645609 -9.777182 44.270417 -3.546127 0.000000 -0.000000 0.000000 5.326303 -6.447894 5.005194 1.867293 -1.296770 6.161795 0.000000 0.000000 0.000000 2.660338 -1.570459 6.795284 0.510567 -14.361495 -2.371748 0.882821 -0.611579 5.381988 -2.431579 -1.233021 -3.254736 -87.253553 -22.467493 -13.224741 -0.197188 6.958567 2.735913 1.978686 -2.594459 6.297333 17.878462 16.882618 -0.061585 59.488288 4.551799 -3.885919 -177.501518 65.481633 -172.501307 0.000000 -0.000000 -0.000000 1.391948 17.980055 -12.739374 -2.351816 -26.866556 -3.317976 0.000000 -0.000000 -0.000000 -0.750958 -27.890566 -4.942336 -8.398241 -6.484809 13.325855 
0.768944 -0.943907 -2.710225 -9.698927 43.969416 -3.434294 0.000000 -0.000000 0.000000 5.144388 -6.610464 5.160759 1.798303 -1.290449 6.113882 0.000000 0.000000 0.000000 2.598840 -1.559263 6.770727 0.319909 -13.712193 -2.429254 0.842514 -0.601501 5.359907 -2.493883 -1.420050 -3.195281 -87.026091 -22.457477 -13.173062 -0.303131 7.120531 2.624422 1.902229 -2.584953 6.278655 18.217953 16.810293 -0.067264 59.225550 4.889920 -4.144830 -177.519324 65.210224 -172.480510 0.000000 -0.000000 -0.000000 1.374321 17.942692 -12.881032 -2.404341 -26.748704 -3.140299 0.000000 -0.000000 -0.000000 -0.720089 -27.995724 -4.963996 -8.446036 -6.437948 13.310385 
0.783174 -0.949943 -2.774127 -9.628762 43.697565 -3.321497 0.000000 -0.000000 0.000000 4.939918 -6.766055 5.320973 1.738195 -1.287612 6.066029 0.000000 0.000000 0.000000 2.541790 -1.554075 6.745656 0.129504 -13.066375 -2.462176 0.802686 -0.591651 5.345578 -2.545774 -1.627767 -3.137511 -86.736345 -22.368515 -13.334378 -0.429369 7.320356 2.455950 1.832289 -2.585089 6.260410 18.517463 16.755268 -0.093319 58.946800 5.249358 -4.463496 -177.584332 64.747319 -172.512166 0.000000 -0.000000 -0.000000 1.346867 17.908319 -13.041793 -2.453756 -26.648802 -2.968852 0.000000 -0.000000 -0.000000 -0.696829 -28.092719 -5.006596 -8.527551 -6.457589 13.313643 
0.801333 -0.955712 -2.836465 -9.561376 43.447634 -3.207687 0.000000 -0.000000 0.000000 4.716255 -6.920716 5.498881 1.682896 -1.291183 6.022100 0.000000 0.000000 0.000000 2.491115 -1.554187 6.724858 -0.048198 -12.442737 -2.496622 0.763194 -0.587476 5.331824 -2.568852 -1.882956 -3.074135 -86.433762 -22.228321 -13.629431 -0.572199 7.593435 2.241296 1.767427 -2.593641 6.241516 18.775273 16.689152 -0.146591 58.674925 5.650487 -4.823469 -177.685340 64.077602 -172.584751 0.000000 -0.000000 -0.000000 1.310940 17.870536 -13.213214 -2.501441 -26.564852 -2.802456 0.000000 -0.000000 -0.000000 -0.676578 -28.133516 -5.071375 -8.638369 -6.541215 13.327184 
0.824076 -0.961108 -2.896911 -9.496779 43.251370 -3.099206 0.000000 -0.000000 0.000000 4.468000 -7.079618 5.675516 1.630048 -1.302852 5.980283 0.000000 0.000000 0.000000 2.440321 -1.559347 6.710412 -0.194995 -11.854519 -2.539644 0.723908 -0.590026 5.313625 -2.566337 -2.184794 -3.006091 -86.156995 -22.077518 -13.994123 -0.629290 8.056651 2.114687 1.703711 -2.611973 6.223465 18.985722 16.640269 -0.225810 58.400896 6.137610 -5.282343 -177.817944 63.172488 -172.692289 0.000000 -0.000000 -0.000000 1.263747 17.829523 -13.385107 -2.547453 -26.515483 -2.661448 0.000000 -0.000000 -0.000000 -0.664345 -28.126161 -5.143720 -8.771591 -6.693020 13.337303 
0.852153 -0.965904 -2.955094 -9.427732 43.088574 -2.993735 0.000000 -0.000000 0.000000 4.206850 -7.223926 5.868882 1.575762 -1.322393 5.936947 0.000000 0.000000 0.000000 2.386701 -1.568600 6.695314 -0.310465 -11.287856 -2.598093 0.685456 -0.601822 5.283983 -2.546731 -2.517572 -2.935010 -85.892149 -21.919060 -14.386706 -0.689461 8.598644 1.961581 1.637018 -2.640085 6.201579 19.119525 16.649151 -0.316805 58.082500 6.665619 -5.831147 -177.976236 62.046854 -172.826984 0.000000 -0.000000 -0.000000 1.202021 17.778256 -13.557917 -2.592937 -26.478533 -2.535623 0.000000 -0.000000 -0.000000 -0.654540 -28.016433 -5.239128 -8.883227 -6.881224 13.360727 
0.886837 -0.970274 -3.010285 -9.349590 42.952481 -2.884601 0.000000 -0.000000 0.000000 3.929311 -7.363396 6.049552 1.519599 -1.350942 5.886836 0.000000 0.000000 0.000000 2.330319 -1.583076 6.675215 -0.409697 -10.735320 -2.665592 0.644982 -0.621553 5.247484 -2.511808 -2.883886 -2.856398 -85.649692 -21.744433 -14.817635 -0.749809 9.207441 1.787371 1.569771 -2.678321 6.165988 19.213224 16.708456 -0.407976 57.761233 7.255555 -6.455437 -178.149751 60.692650 -172.979087 0.000000 -0.000000 -0.000000 1.123255 17.716048 -13.724105 -2.636926 -26.475563 -2.446519 0.000000 -0.000000 -0.000000 -0.657492 -27.810246 -5.354794 -8.924119 -7.084584 13.389220 
